<?xml version="1.0" encoding="utf-8" ?>
<svg baseProfile="full" height="160" version="1.1" width="160" xmlns="http://www.w3.org/2000/svg" xmlns:ev="http://www.w3.org/2001/xml-events" xmlns:xlink="http://www.w3.org/1999/xlink"><defs /><line stroke="rgb(10,10,16)" stroke-width="2" x1="42" x2="96" y1="153" y2="100" /><line stroke="rgb(10,10,16)" stroke-width="2" x1="36" x2="131" y1="27" y2="56" /><line stroke="rgb(10,10,16)" stroke-width="2" x1="22" x2="46" y1="8" y2="49" /><line stroke="rgb(10,10,16)" stroke-width="2" x1="59" x2="105" y1="78" y2="71" /><line stroke="rgb(10,10,16)" stroke-width="2" x1="0" x2="72" y1="17" y2="17" /><line stroke="rgb(10,10,16)" stroke-width="2" x1="23" x2="81" y1="84" y2="75" /><line stroke="rgb(10,10,16)" stroke-width="2" x1="12" x2="72" y1="19" y2="19" /><line stroke="rgb(10,10,16)" stroke-width="2" x1="15" x2="52" y1="109" y2="84" /><line stroke="rgb(10,10,16)" stroke-width="2" x1="63" x2="73" y1="78" y2="67" /><line stroke="rgb(10,10,16)" stroke-width="2" x1="30" x2="64" y1="21" y2="79" /><line stroke="rgb(10,10,16)" stroke-width="2" x1="117" x2="125" y1="18" y2="10" /><line stroke="rgb(10,10,16)" stroke-width="2" x1="71" x2="121" y1="127" y2="77" /><line stroke="rgb(10,10,16)" stroke-width="2" x1="26" x2="52" y1="116" y2="89" /><line stroke="rgb(10,10,16)" stroke-width="2" x1="39" x2="47" y1="101" y2="93" /><line stroke="rgb(10,10,16)" stroke-width="2" x1="79" x2="99" y1="74" y2="71" /></svg>