<?xml version="1.0" encoding="utf-8" ?>
<svg baseProfile="full" height="160" version="1.1" width="160" xmlns="http://www.w3.org/2000/svg" xmlns:ev="http://www.w3.org/2001/xml-events" xmlns:xlink="http://www.w3.org/1999/xlink"><defs /><line stroke="rgb(10,10,16)" stroke-width="2" x1="0" x2="68" y1="14" y2="102" /><line stroke="rgb(10,10,16)" stroke-width="2" x1="1" x2="105" y1="152" y2="149" /><line stroke="rgb(10,10,16)" stroke-width="2" x1="139" x2="141" y1="131" y2="20" /><line stroke="rgb(10,10,16)" stroke-width="2" x1="62" x2="80" y1="25" y2="119" /><line stroke="rgb(10,10,16)" stroke-width="2" x1="38" x2="57" y1="35" y2="122" /><line stroke="rgb(10,10,16)" stroke-width="2" x1="139" x2="139" y1="87" y2="53" /><line stroke="rgb(10,10,16)" stroke-width="2" x1="121" x2="125" y1="73" y2="6" /><line stroke="rgb(10,10,16)" stroke-width="2" x1="138" x2="138" y1="100" y2="136" /><line stroke="rgb(10,10,16)" stroke-width="2" x1="43" x2="47" y1="68" y2="73" /><line stroke="rgb(10,10,16)" stroke-width="2" x1="96" x2="102" y1="43" y2="0" /><line stroke="rgb(10,10,16)" stroke-width="2" x1="48" x2="55" y1="86" y2="122" /><line stroke="rgb(10,10,16)" stroke-width="2" x1="81" x2="102" y1="121" y2="148" /><line stroke="rgb(10,10,16)" stroke-width="2" x1="124" x2="126" y1="40" y2="0" /><line stroke="rgb(10,10,16)" stroke-width="2" x1="51" x2="59" y1="153" y2="153" /><line stroke="rgb(10,10,16)" stroke-width="2" x1="100" x2="100" y1="32" y2="28" /><line stroke="rgb(10,10,16)" stroke-width="2" x1="79" x2="100" y1="79" y2="100" /></svg>