<?xml version="1.0" encoding="utf-8" ?>
<svg baseProfile="full" height="160" version="1.1" width="160" xmlns="http://www.w3.org/2000/svg" xmlns:ev="http://www.w3.org/2001/xml-events" xmlns:xlink="http://www.w3.org/1999/xlink"><defs /><line stroke="rgb(10,10,16)" stroke-width="2" x1="40" x2="43" y1="12" y2="113" /><line stroke="rgb(10,10,16)" stroke-width="2" x1="55" x2="120" y1="76" y2="90" /><line stroke="rgb(10,10,16)" stroke-width="2" x1="48" x2="117" y1="47" y2="46" /><line stroke="rgb(10,10,16)" stroke-width="2" x1="68" x2="118" y1="39" y2="14" /><line stroke="rgb(10,10,16)" stroke-width="2" x1="44" x2="44" y1="85" y2="112" /><line stroke="rgb(10,10,16)" stroke-width="2" x1="61" x2="137" y1="47" y2="48" /><line stroke="rgb(10,10,16)" stroke-width="2" x1="42" x2="42" y1="112" y2="88" /><line stroke="rgb(10,10,16)" stroke-width="2" x1="101" x2="159" y1="84" y2="96" /><line stroke="rgb(10,10,16)" stroke-width="2" x1="37" x2="93" y1="45" y2="45" /><line stroke="rgb(10,10,16)" stroke-width="2" x1="77" x2="119" y1="84" y2="77" /><line stroke="rgb(10,10,16)" stroke-width="2" x1="42" x2="43" y1="36" y2="73" /><line stroke="rgb(10,10,16)" stroke-width="2" x1="102" x2="137" y1="47" y2="46" /><line stroke="rgb(10,10,16)" stroke-width="2" x1="94" x2="117" y1="23" y2="2" /><line stroke="rgb(10,10,16)" stroke-width="2" x1="102" x2="117" y1="23" y2="15" /><line stroke="rgb(10,10,16)" stroke-width="2" x1="87" x2="159" y1="81" y2="97" /><line stroke="rgb(10,10,16)" stroke-width="2" x1="115" x2="139" y1="155" y2="130" /><line stroke="rgb(10,10,16)" stroke-width="2" x1="40" x2="40" y1="51" y2="31" /><line stroke="rgb(10,10,16)" stroke-width="2" x1="96" x2="121" y1="79" y2="75" /></svg>