<?xml version="1.0" encoding="utf-8" ?>
<svg baseProfile="full" height="160" version="1.1" width="160" xmlns="http://www.w3.org/2000/svg" xmlns:ev="http://www.w3.org/2001/xml-events" xmlns:xlink="http://www.w3.org/1999/xlink"><defs /><line stroke="rgb(10,10,16)" stroke-width="2" x1="44" x2="96" y1="40" y2="156" /><line stroke="rgb(10,10,16)" stroke-width="2" x1="56" x2="76" y1="70" y2="113" /><line stroke="rgb(10,10,16)" stroke-width="2" x1="7" x2="118" y1="86" y2="65" /><line stroke="rgb(10,10,16)" stroke-width="2" x1="138" x2="147" y1="43" y2="136" /><line stroke="rgb(10,10,16)" stroke-width="2" x1="54" x2="76" y1="76" y2="72" /><line stroke="rgb(10,10,16)" stroke-width="2" x1="32" x2="113" y1="87" y2="35" /><line stroke="rgb(10,10,16)" stroke-width="2" x1="49" x2="97" y1="38" y2="113" /><line stroke="rgb(10,10,16)" stroke-width="2" x1="58" x2="73" y1="66" y2="91" /><line stroke="rgb(10,10,16)" stroke-width="2" x1="11" x2="60" y1="53" y2="41" /><line stroke="rgb(10,10,16)" stroke-width="2" x1="80" x2="123" y1="74" y2="66" /><line stroke="rgb(10,10,16)" stroke-width="2" x1="53" x2="73" y1="57" y2="92" /><line stroke="rgb(10,10,16)" stroke-width="2" x1="142" x2="146" y1="92" y2="137" /><line stroke="rgb(10,10,16)" stroke-width="2" x1="56" x2="111" y1="71" y2="35" /><line stroke="rgb(10,10,16)" stroke-width="2" x1="43" x2="112" y1="81" y2="36" /><line stroke="rgb(10,10,16)" stroke-width="2" x1="82" x2="96" y1="92" y2="113" /><line stroke="rgb(10,10,16)" stroke-width="2" x1="34" x2="55" y1="25" y2="65" /><line stroke="rgb(10,10,16)" stroke-width="2" x1="66" x2="74" y1="77" y2="91" /></svg>