<?xml version="1.0" encoding="utf-8" ?>
<svg baseProfile="full" height="160" version="1.1" width="160" xmlns="http://www.w3.org/2000/svg" xmlns:ev="http://www.w3.org/2001/xml-events" xmlns:xlink="http://www.w3.org/1999/xlink"><defs /><line stroke="rgb(10,10,16)" stroke-width="2" x1="8" x2="136" y1="141" y2="13" /><line stroke="rgb(10,10,16)" stroke-width="2" x1="67" x2="78" y1="152" y2="78" /><line stroke="rgb(10,10,16)" stroke-width="2" x1="27" x2="43" y1="86" y2="155" /><line stroke="rgb(10,10,16)" stroke-width="2" x1="12" x2="31" y1="17" y2="99" /><line stroke="rgb(10,10,16)" stroke-width="2" x1="38" x2="80" y1="112" y2="70" /><line stroke="rgb(10,10,16)" stroke-width="2" x1="81" x2="81" y1="67" y2="63" /><line stroke="rgb(10,10,16)" stroke-width="2" x1="13" x2="59" y1="88" y2="88" /><line stroke="rgb(10,10,16)" stroke-width="2" x1="85" x2="132" y1="94" y2="117" /><line stroke="rgb(10,10,16)" stroke-width="2" x1="11" x2="61" y1="67" y2="107" /><line stroke="rgb(10,10,16)" stroke-width="2" x1="41" x2="115" y1="74" y2="107" /><line stroke="rgb(10,10,16)" stroke-width="2" x1="31" x2="61" y1="82" y2="106" /><line stroke="rgb(10,10,16)" stroke-width="2" x1="76" x2="77" y1="75" y2="71" /><line stroke="rgb(10,10,16)" stroke-width="2" x1="79" x2="86" y1="61" y2="17" /><line stroke="rgb(10,10,16)" stroke-width="2" x1="68" x2="78" y1="88" y2="88" /><line stroke="rgb(10,10,16)" stroke-width="2" x1="140" x2="154" y1="121" y2="94" /><line stroke="rgb(10,10,16)" stroke-width="2" x1="91" x2="119" y1="59" y2="31" /><line stroke="rgb(10,10,16)" stroke-width="2" x1="103" x2="133" y1="102" y2="116" /></svg>