<?xml version="1.0" encoding="utf-8" ?>
<svg baseProfile="full" height="160" version="1.1" width="160" xmlns="http://www.w3.org/2000/svg" xmlns:ev="http://www.w3.org/2001/xml-events" xmlns:xlink="http://www.w3.org/1999/xlink"><defs /><line stroke="rgb(10,10,16)" stroke-width="2" x1="48" x2="134" y1="9" y2="81" /><line stroke="rgb(10,10,16)" stroke-width="2" x1="37" x2="96" y1="52" y2="134" /><line stroke="rgb(10,10,16)" stroke-width="2" x1="118" x2="120" y1="67" y2="14" /><line stroke="rgb(10,10,16)" stroke-width="2" x1="20" x2="121" y1="63" y2="0" /><line stroke="rgb(10,10,16)" stroke-width="2" x1="13" x2="70" y1="24" y2="42" /><line stroke="rgb(10,10,16)" stroke-width="2" x1="120" x2="121" y1="100" y2="15" /><line stroke="rgb(10,10,16)" stroke-width="2" x1="50" x2="84" y1="155" y2="120" /><line stroke="rgb(10,10,16)" stroke-width="2" x1="107" x2="142" y1="57" y2="26" /><line stroke="rgb(10,10,16)" stroke-width="2" x1="35" x2="120" y1="53" y2="0" /><line stroke="rgb(10,10,16)" stroke-width="2" x1="63" x2="96" y1="37" y2="16" /><line stroke="rgb(10,10,16)" stroke-width="2" x1="88" x2="105" y1="116" y2="100" /><line stroke="rgb(10,10,16)" stroke-width="2" x1="117" x2="119" y1="110" y2="60" /><line stroke="rgb(10,10,16)" stroke-width="2" x1="46" x2="77" y1="63" y2="105" /><line stroke="rgb(10,10,16)" stroke-width="2" x1="116" x2="157" y1="48" y2="13" /><line stroke="rgb(10,10,16)" stroke-width="2" x1="63" x2="85" y1="40" y2="48" /></svg>