<?xml version="1.0" encoding="utf-8" ?>
<svg baseProfile="full" height="160" version="1.1" width="160" xmlns="http://www.w3.org/2000/svg" xmlns:ev="http://www.w3.org/2001/xml-events" xmlns:xlink="http://www.w3.org/1999/xlink"><defs /><line stroke="rgb(10,10,16)" stroke-width="2" x1="3" x2="117" y1="54" y2="62" /><line stroke="rgb(10,10,16)" stroke-width="2" x1="62" x2="86" y1="0" y2="80" /><line stroke="rgb(10,10,16)" stroke-width="2" x1="98" x2="138" y1="72" y2="24" /><line stroke="rgb(10,10,16)" stroke-width="2" x1="88" x2="132" y1="7" y2="101" /><line stroke="rgb(10,10,16)" stroke-width="2" x1="57" x2="88" y1="119" y2="83" /><line stroke="rgb(10,10,16)" stroke-width="2" x1="89" x2="93" y1="89" y2="102" /><line stroke="rgb(10,10,16)" stroke-width="2" x1="124" x2="127" y1="123" y2="74" /><line stroke="rgb(10,10,16)" stroke-width="2" x1="62" x2="84" y1="59" y2="60" /><line stroke="rgb(10,10,16)" stroke-width="2" x1="97" x2="151" y1="76" y2="64" /><line stroke="rgb(10,10,16)" stroke-width="2" x1="91" x2="118" y1="81" y2="49" /><line stroke="rgb(10,10,16)" stroke-width="2" x1="126" x2="130" y1="92" y2="101" /><line stroke="rgb(10,10,16)" stroke-width="2" x1="94" x2="123" y1="22" y2="86" /><line stroke="rgb(10,10,16)" stroke-width="2" x1="111" x2="136" y1="55" y2="25" /><line stroke="rgb(10,10,16)" stroke-width="2" x1="127" x2="134" y1="71" y2="62" /><line stroke="rgb(10,10,16)" stroke-width="2" x1="66" x2="86" y1="146" y2="122" /><line stroke="rgb(10,10,16)" stroke-width="2" x1="144" x2="159" y1="63" y2="64" /><line stroke="rgb(10,10,16)" stroke-width="2" x1="42" x2="51" y1="59" y2="59" /><line stroke="rgb(10,10,16)" stroke-width="2" x1="81" x2="92" y1="70" y2="107" /><line stroke="rgb(10,10,16)" stroke-width="2" x1="126" x2="126" y1="113" y2="111" /></svg>