<?xml version="1.0" encoding="utf-8" ?>
<svg baseProfile="full" height="160" version="1.1" width="160" xmlns="http://www.w3.org/2000/svg" xmlns:ev="http://www.w3.org/2001/xml-events" xmlns:xlink="http://www.w3.org/1999/xlink"><defs /><line stroke="rgb(10,10,16)" stroke-width="2" x1="97" x2="130" y1="50" y2="118" /><line stroke="rgb(10,10,16)" stroke-width="2" x1="123" x2="153" y1="71" y2="15" /><line stroke="rgb(10,10,16)" stroke-width="2" x1="87" x2="104" y1="139" y2="108" /><line stroke="rgb(10,10,16)" stroke-width="2" x1="31" x2="70" y1="53" y2="1" /><line stroke="rgb(10,10,16)" stroke-width="2" x1="120" x2="131" y1="98" y2="39" /><line stroke="rgb(10,10,16)" stroke-width="2" x1="98" x2="127" y1="118" y2="47" /><line stroke="rgb(10,10,16)" stroke-width="2" x1="128" x2="138" y1="65" y2="10" /><line stroke="rgb(10,10,16)" stroke-width="2" x1="92" x2="97" y1="128" y2="118" /><line stroke="rgb(10,10,16)" stroke-width="2" x1="98" x2="129" y1="116" y2="62" /><line stroke="rgb(10,10,16)" stroke-width="2" x1="58" x2="74" y1="59" y2="89" /><line stroke="rgb(10,10,16)" stroke-width="2" x1="113" x2="115" y1="84" y2="89" /><line stroke="rgb(10,10,16)" stroke-width="2" x1="122" x2="124" y1="77" y2="74" /><line stroke="rgb(10,10,16)" stroke-width="2" x1="130" x2="148" y1="59" y2="27" /><line stroke="rgb(10,10,16)" stroke-width="2" x1="120" x2="135" y1="93" y2="128" /><line stroke="rgb(10,10,16)" stroke-width="2" x1="128" x2="148" y1="118" y2="157" /><line stroke="rgb(10,10,16)" stroke-width="2" x1="109" x2="126" y1="89" y2="46" /><line stroke="rgb(10,10,16)" stroke-width="2" x1="130" x2="132" y1="42" y2="35" /></svg>