<?xml version="1.0" encoding="utf-8" ?>
<svg baseProfile="full" height="160" version="1.1" width="160" xmlns="http://www.w3.org/2000/svg" xmlns:ev="http://www.w3.org/2001/xml-events" xmlns:xlink="http://www.w3.org/1999/xlink"><defs /><line stroke="rgb(10,10,16)" stroke-width="2" x1="122" x2="145" y1="157" y2="40" /><line stroke="rgb(10,10,16)" stroke-width="2" x1="29" x2="90" y1="136" y2="27" /><line stroke="rgb(10,10,16)" stroke-width="2" x1="142" x2="150" y1="0" y2="83" /><line stroke="rgb(10,10,16)" stroke-width="2" x1="84" x2="85" y1="152" y2="76" /><line stroke="rgb(10,10,16)" stroke-width="2" x1="122" x2="134" y1="100" y2="10" /><line stroke="rgb(10,10,16)" stroke-width="2" x1="89" x2="89" y1="33" y2="27" /><line stroke="rgb(10,10,16)" stroke-width="2" x1="145" x2="146" y1="42" y2="57" /><line stroke="rgb(10,10,16)" stroke-width="2" x1="86" x2="86" y1="124" y2="57" /><line stroke="rgb(10,10,16)" stroke-width="2" x1="147" x2="147" y1="58" y2="63" /><line stroke="rgb(10,10,16)" stroke-width="2" x1="129" x2="136" y1="67" y2="11" /><line stroke="rgb(10,10,16)" stroke-width="2" x1="147" x2="154" y1="64" y2="138" /><line stroke="rgb(10,10,16)" stroke-width="2" x1="80" x2="115" y1="21" y2="55" /><line stroke="rgb(10,10,16)" stroke-width="2" x1="151" x2="152" y1="121" y2="133" /><line stroke="rgb(10,10,16)" stroke-width="2" x1="87" x2="87" y1="99" y2="56" /><line stroke="rgb(10,10,16)" stroke-width="2" x1="84" x2="85" y1="100" y2="146" /><line stroke="rgb(10,10,16)" stroke-width="2" x1="152" x2="152" y1="101" y2="103" /><line stroke="rgb(10,10,16)" stroke-width="2" x1="148" x2="150" y1="80" y2="107" /></svg>