<?xml version="1.0" encoding="utf-8" ?>
<svg baseProfile="full" height="160" version="1.1" width="160" xmlns="http://www.w3.org/2000/svg" xmlns:ev="http://www.w3.org/2001/xml-events" xmlns:xlink="http://www.w3.org/1999/xlink"><defs /><line stroke="rgb(10,10,16)" stroke-width="2" x1="88" x2="141" y1="4" y2="105" /><line stroke="rgb(10,10,16)" stroke-width="2" x1="127" x2="153" y1="82" y2="130" /><line stroke="rgb(10,10,16)" stroke-width="2" x1="38" x2="41" y1="140" y2="136" /><line stroke="rgb(10,10,16)" stroke-width="2" x1="32" x2="101" y1="148" y2="66" /><line stroke="rgb(10,10,16)" stroke-width="2" x1="22" x2="32" y1="136" y2="137" /><line stroke="rgb(10,10,16)" stroke-width="2" x1="9" x2="121" y1="134" y2="145" /><line stroke="rgb(10,10,16)" stroke-width="2" x1="50" x2="102" y1="70" y2="144" /><line stroke="rgb(10,10,16)" stroke-width="2" x1="45" x2="98" y1="112" y2="59" /><line stroke="rgb(10,10,16)" stroke-width="2" x1="70" x2="104" y1="95" y2="143" /><line stroke="rgb(10,10,16)" stroke-width="2" x1="46" x2="86" y1="41" y2="66" /><line stroke="rgb(10,10,16)" stroke-width="2" x1="42" x2="122" y1="136" y2="144" /><line stroke="rgb(10,10,16)" stroke-width="2" x1="127" x2="127" y1="94" y2="36" /><line stroke="rgb(10,10,16)" stroke-width="2" x1="60" x2="74" y1="140" y2="141" /><line stroke="rgb(10,10,16)" stroke-width="2" x1="94" x2="122" y1="19" y2="72" /><line stroke="rgb(10,10,16)" stroke-width="2" x1="129" x2="129" y1="37" y2="73" /><line stroke="rgb(10,10,16)" stroke-width="2" x1="63" x2="98" y1="93" y2="58" /><line stroke="rgb(10,10,16)" stroke-width="2" x1="80" x2="97" y1="61" y2="70" /><line stroke="rgb(10,10,16)" stroke-width="2" x1="79" x2="102" y1="95" y2="67" /></svg>