<?xml version="1.0" encoding="utf-8" ?>
<svg baseProfile="full" height="160" version="1.1" width="160" xmlns="http://www.w3.org/2000/svg" xmlns:ev="http://www.w3.org/2001/xml-events" xmlns:xlink="http://www.w3.org/1999/xlink"><defs /><line stroke="rgb(10,10,16)" stroke-width="2" x1="29" x2="85" y1="23" y2="139" /><line stroke="rgb(10,10,16)" stroke-width="2" x1="127" x2="133" y1="16" y2="82" /><line stroke="rgb(10,10,16)" stroke-width="2" x1="65" x2="98" y1="148" y2="146" /><line stroke="rgb(10,10,16)" stroke-width="2" x1="15" x2="50" y1="151" y2="149" /><line stroke="rgb(10,10,16)" stroke-width="2" x1="58" x2="80" y1="93" y2="67" /><line stroke="rgb(10,10,16)" stroke-width="2" x1="105" x2="129" y1="41" y2="14" /><line stroke="rgb(10,10,16)" stroke-width="2" x1="124" x2="133" y1="114" y2="71" /><line stroke="rgb(10,10,16)" stroke-width="2" x1="87" x2="128" y1="59" y2="13" /><line stroke="rgb(10,10,16)" stroke-width="2" x1="104" x2="111" y1="144" y2="144" /><line stroke="rgb(10,10,16)" stroke-width="2" x1="135" x2="138" y1="120" y2="123" /><line stroke="rgb(10,10,16)" stroke-width="2" x1="87" x2="114" y1="62" y2="16" /><line stroke="rgb(10,10,16)" stroke-width="2" x1="111" x2="129" y1="96" y2="114" /><line stroke="rgb(10,10,16)" stroke-width="2" x1="47" x2="54" y1="148" y2="148" /><line stroke="rgb(10,10,16)" stroke-width="2" x1="133" x2="135" y1="87" y2="114" /><line stroke="rgb(10,10,16)" stroke-width="2" x1="84" x2="90" y1="147" y2="147" /><line stroke="rgb(10,10,16)" stroke-width="2" x1="103" x2="118" y1="85" y2="101" /><line stroke="rgb(10,10,16)" stroke-width="2" x1="28" x2="46" y1="149" y2="148" /><line stroke="rgb(10,10,16)" stroke-width="2" x1="63" x2="86" y1="92" y2="139" /></svg>