<?xml version="1.0" encoding="utf-8" ?>
<svg baseProfile="full" height="160" version="1.1" width="160" xmlns="http://www.w3.org/2000/svg" xmlns:ev="http://www.w3.org/2001/xml-events" xmlns:xlink="http://www.w3.org/1999/xlink"><defs /><line stroke="rgb(10,10,16)" stroke-width="2" x1="5" x2="74" y1="88" y2="66" /><line stroke="rgb(10,10,16)" stroke-width="2" x1="28" x2="129" y1="84" y2="26" /><line stroke="rgb(10,10,16)" stroke-width="2" x1="69" x2="92" y1="150" y2="6" /><line stroke="rgb(10,10,16)" stroke-width="2" x1="109" x2="135" y1="141" y2="75" /><line stroke="rgb(10,10,16)" stroke-width="2" x1="51" x2="96" y1="69" y2="43" /><line stroke="rgb(10,10,16)" stroke-width="2" x1="6" x2="86" y1="75" y2="108" /><line stroke="rgb(10,10,16)" stroke-width="2" x1="91" x2="131" y1="63" y2="50" /><line stroke="rgb(10,10,16)" stroke-width="2" x1="32" x2="78" y1="114" y2="131" /><line stroke="rgb(10,10,16)" stroke-width="2" x1="121" x2="155" y1="107" y2="21" /><line stroke="rgb(10,10,16)" stroke-width="2" x1="38" x2="42" y1="101" y2="65" /><line stroke="rgb(10,10,16)" stroke-width="2" x1="33" x2="41" y1="127" y2="64" /><line stroke="rgb(10,10,16)" stroke-width="2" x1="135" x2="155" y1="70" y2="20" /><line stroke="rgb(10,10,16)" stroke-width="2" x1="35" x2="57" y1="121" y2="83" /><line stroke="rgb(10,10,16)" stroke-width="2" x1="46" x2="94" y1="93" y2="113" /><line stroke="rgb(10,10,16)" stroke-width="2" x1="87" x2="128" y1="48" y2="25" /><line stroke="rgb(10,10,16)" stroke-width="2" x1="55" x2="94" y1="74" y2="61" /><line stroke="rgb(10,10,16)" stroke-width="2" x1="52" x2="88" y1="120" y2="133" /><line stroke="rgb(10,10,16)" stroke-width="2" x1="75" x2="88" y1="66" y2="61" /></svg>