<?xml version="1.0" encoding="utf-8" ?>
<svg baseProfile="full" height="160" version="1.1" width="160" xmlns="http://www.w3.org/2000/svg" xmlns:ev="http://www.w3.org/2001/xml-events" xmlns:xlink="http://www.w3.org/1999/xlink"><defs /><line stroke="rgb(10,10,16)" stroke-width="2" x1="71" x2="149" y1="52" y2="130" /><line stroke="rgb(10,10,16)" stroke-width="2" x1="89" x2="156" y1="112" y2="47" /><line stroke="rgb(10,10,16)" stroke-width="2" x1="63" x2="68" y1="145" y2="73" /><line stroke="rgb(10,10,16)" stroke-width="2" x1="9" x2="90" y1="41" y2="26" /><line stroke="rgb(10,10,16)" stroke-width="2" x1="52" x2="147" y1="134" y2="73" /><line stroke="rgb(10,10,16)" stroke-width="2" x1="10" x2="126" y1="117" y2="121" /><line stroke="rgb(10,10,16)" stroke-width="2" x1="57" x2="91" y1="40" y2="75" /><line stroke="rgb(10,10,16)" stroke-width="2" x1="71" x2="80" y1="89" y2="118" /><line stroke="rgb(10,10,16)" stroke-width="2" x1="112" x2="145" y1="95" y2="73" /><line stroke="rgb(10,10,16)" stroke-width="2" x1="59" x2="64" y1="54" y2="69" /><line stroke="rgb(10,10,16)" stroke-width="2" x1="74" x2="90" y1="115" y2="80" /><line stroke="rgb(10,10,16)" stroke-width="2" x1="106" x2="142" y1="94" y2="58" /><line stroke="rgb(10,10,16)" stroke-width="2" x1="63" x2="68" y1="130" y2="63" /><line stroke="rgb(10,10,16)" stroke-width="2" x1="84" x2="99" y1="114" y2="103" /><line stroke="rgb(10,10,16)" stroke-width="2" x1="57" x2="86" y1="152" y2="92" /><line stroke="rgb(10,10,16)" stroke-width="2" x1="83" x2="91" y1="121" y2="121" /><line stroke="rgb(10,10,16)" stroke-width="2" x1="26" x2="49" y1="9" y2="34" /><line stroke="rgb(10,10,16)" stroke-width="2" x1="76" x2="78" y1="109" y2="118" /><line stroke="rgb(10,10,16)" stroke-width="2" x1="44" x2="75" y1="120" y2="121" /><line stroke="rgb(10,10,16)" stroke-width="2" x1="115" x2="149" y1="95" y2="129" /><line stroke="rgb(10,10,16)" stroke-width="2" x1="39" x2="66" y1="21" y2="49" /></svg>