<?xml version="1.0" encoding="utf-8" ?>
<svg baseProfile="full" height="160" version="1.1" width="160" xmlns="http://www.w3.org/2000/svg" xmlns:ev="http://www.w3.org/2001/xml-events" xmlns:xlink="http://www.w3.org/1999/xlink"><defs /><line stroke="rgb(10,10,16)" stroke-width="2" x1="44" x2="129" y1="142" y2="41" /><line stroke="rgb(10,10,16)" stroke-width="2" x1="61" x2="157" y1="121" y2="6" /><line stroke="rgb(10,10,16)" stroke-width="2" x1="30" x2="67" y1="19" y2="103" /><line stroke="rgb(10,10,16)" stroke-width="2" x1="74" x2="106" y1="31" y2="85" /><line stroke="rgb(10,10,16)" stroke-width="2" x1="22" x2="127" y1="28" y2="31" /><line stroke="rgb(10,10,16)" stroke-width="2" x1="16" x2="42" y1="70" y2="116" /><line stroke="rgb(10,10,16)" stroke-width="2" x1="25" x2="63" y1="47" y2="121" /><line stroke="rgb(10,10,16)" stroke-width="2" x1="56" x2="72" y1="29" y2="29" /><line stroke="rgb(10,10,16)" stroke-width="2" x1="74" x2="90" y1="29" y2="29" /><line stroke="rgb(10,10,16)" stroke-width="2" x1="62" x2="76" y1="94" y2="126" /><line stroke="rgb(10,10,16)" stroke-width="2" x1="102" x2="127" y1="30" y2="29" /><line stroke="rgb(10,10,16)" stroke-width="2" x1="21" x2="78" y1="64" y2="98" /><line stroke="rgb(10,10,16)" stroke-width="2" x1="66" x2="79" y1="90" y2="98" /><line stroke="rgb(10,10,16)" stroke-width="2" x1="87" x2="114" y1="30" y2="30" /><line stroke="rgb(10,10,16)" stroke-width="2" x1="129" x2="157" y1="38" y2="5" /><line stroke="rgb(10,10,16)" stroke-width="2" x1="123" x2="141" y1="74" y2="46" /></svg>