<?xml version="1.0" encoding="utf-8" ?>
<svg baseProfile="full" height="160" version="1.1" width="160" xmlns="http://www.w3.org/2000/svg" xmlns:ev="http://www.w3.org/2001/xml-events" xmlns:xlink="http://www.w3.org/1999/xlink"><defs /><line stroke="rgb(10,10,16)" stroke-width="2" x1="23" x2="61" y1="5" y2="43" /><line stroke="rgb(10,10,16)" stroke-width="2" x1="5" x2="146" y1="90" y2="147" /><line stroke="rgb(10,10,16)" stroke-width="2" x1="20" x2="55" y1="107" y2="20" /><line stroke="rgb(10,10,16)" stroke-width="2" x1="17" x2="66" y1="116" y2="132" /><line stroke="rgb(10,10,16)" stroke-width="2" x1="71" x2="127" y1="51" y2="108" /><line stroke="rgb(10,10,16)" stroke-width="2" x1="3" x2="24" y1="148" y2="78" /><line stroke="rgb(10,10,16)" stroke-width="2" x1="130" x2="138" y1="67" y2="115" /><line stroke="rgb(10,10,16)" stroke-width="2" x1="37" x2="147" y1="102" y2="146" /><line stroke="rgb(10,10,16)" stroke-width="2" x1="19" x2="62" y1="90" y2="135" /><line stroke="rgb(10,10,16)" stroke-width="2" x1="41" x2="57" y1="115" y2="131" /><line stroke="rgb(10,10,16)" stroke-width="2" x1="23" x2="124" y1="98" y2="139" /><line stroke="rgb(10,10,16)" stroke-width="2" x1="109" x2="141" y1="89" y2="122" /><line stroke="rgb(10,10,16)" stroke-width="2" x1="25" x2="47" y1="93" y2="36" /><line stroke="rgb(10,10,16)" stroke-width="2" x1="68" x2="92" y1="133" y2="141" /><line stroke="rgb(10,10,16)" stroke-width="2" x1="124" x2="142" y1="103" y2="121" /></svg>