<?xml version="1.0" encoding="utf-8" ?>
<svg baseProfile="full" height="160" version="1.1" width="160" xmlns="http://www.w3.org/2000/svg" xmlns:ev="http://www.w3.org/2001/xml-events" xmlns:xlink="http://www.w3.org/1999/xlink"><defs /><line stroke="rgb(10,10,16)" stroke-width="2" x1="25" x2="98" y1="122" y2="0" /><line stroke="rgb(10,10,16)" stroke-width="2" x1="63" x2="136" y1="10" y2="126" /><line stroke="rgb(10,10,16)" stroke-width="2" x1="25" x2="110" y1="63" y2="72" /><line stroke="rgb(10,10,16)" stroke-width="2" x1="45" x2="54" y1="54" y2="115" /><line stroke="rgb(10,10,16)" stroke-width="2" x1="52" x2="61" y1="88" y2="149" /><line stroke="rgb(10,10,16)" stroke-width="2" x1="47" x2="51" y1="88" y2="82" /><line stroke="rgb(10,10,16)" stroke-width="2" x1="46" x2="59" y1="63" y2="68" /><line stroke="rgb(10,10,16)" stroke-width="2" x1="78" x2="123" y1="76" y2="91" /><line stroke="rgb(10,10,16)" stroke-width="2" x1="22" x2="80" y1="26" y2="3" /><line stroke="rgb(10,10,16)" stroke-width="2" x1="96" x2="142" y1="25" y2="23" /><line stroke="rgb(10,10,16)" stroke-width="2" x1="83" x2="99" y1="28" y2="1" /><line stroke="rgb(10,10,16)" stroke-width="2" x1="5" x2="44" y1="86" y2="66" /><line stroke="rgb(10,10,16)" stroke-width="2" x1="115" x2="143" y1="23" y2="22" /><line stroke="rgb(10,10,16)" stroke-width="2" x1="104" x2="123" y1="75" y2="106" /><line stroke="rgb(10,10,16)" stroke-width="2" x1="56" x2="58" y1="69" y2="70" /><line stroke="rgb(10,10,16)" stroke-width="2" x1="118" x2="140" y1="88" y2="95" /><line stroke="rgb(10,10,16)" stroke-width="2" x1="75" x2="120" y1="70" y2="75" /><line stroke="rgb(10,10,16)" stroke-width="2" x1="50" x2="57" y1="63" y2="59" /><line stroke="rgb(10,10,16)" stroke-width="2" x1="77" x2="99" y1="34" y2="69" /></svg>