<?xml version="1.0" encoding="utf-8" ?>
<svg baseProfile="full" height="160" version="1.1" width="160" xmlns="http://www.w3.org/2000/svg" xmlns:ev="http://www.w3.org/2001/xml-events" xmlns:xlink="http://www.w3.org/1999/xlink"><defs /><line stroke="rgb(10,10,16)" stroke-width="2" x1="13" x2="146" y1="83" y2="4" /><line stroke="rgb(10,10,16)" stroke-width="2" x1="37" x2="38" y1="40" y2="81" /><line stroke="rgb(10,10,16)" stroke-width="2" x1="68" x2="104" y1="56" y2="76" /><line stroke="rgb(10,10,16)" stroke-width="2" x1="11" x2="95" y1="25" y2="70" /><line stroke="rgb(10,10,16)" stroke-width="2" x1="37" x2="44" y1="109" y2="130" /><line stroke="rgb(10,10,16)" stroke-width="2" x1="14" x2="43" y1="47" y2="123" /><line stroke="rgb(10,10,16)" stroke-width="2" x1="39" x2="40" y1="118" y2="144" /><line stroke="rgb(10,10,16)" stroke-width="2" x1="66" x2="147" y1="53" y2="4" /><line stroke="rgb(10,10,16)" stroke-width="2" x1="106" x2="128" y1="77" y2="89" /><line stroke="rgb(10,10,16)" stroke-width="2" x1="39" x2="39" y1="53" y2="69" /><line stroke="rgb(10,10,16)" stroke-width="2" x1="37" x2="82" y1="82" y2="98" /><line stroke="rgb(10,10,16)" stroke-width="2" x1="47" x2="81" y1="87" y2="99" /><line stroke="rgb(10,10,16)" stroke-width="2" x1="59" x2="106" y1="49" y2="56" /><line stroke="rgb(10,10,16)" stroke-width="2" x1="70" x2="107" y1="50" y2="56" /><line stroke="rgb(10,10,16)" stroke-width="2" x1="30" x2="60" y1="75" y2="56" /></svg>