<?xml version="1.0" encoding="utf-8" ?>
<svg baseProfile="full" height="160" version="1.1" width="160" xmlns="http://www.w3.org/2000/svg" xmlns:ev="http://www.w3.org/2001/xml-events" xmlns:xlink="http://www.w3.org/1999/xlink"><defs /><line stroke="rgb(10,10,16)" stroke-width="2" x1="39" x2="94" y1="39" y2="153" /><line stroke="rgb(10,10,16)" stroke-width="2" x1="118" x2="139" y1="112" y2="54" /><line stroke="rgb(10,10,16)" stroke-width="2" x1="44" x2="123" y1="107" y2="95" /><line stroke="rgb(10,10,16)" stroke-width="2" x1="49" x2="140" y1="26" y2="96" /><line stroke="rgb(10,10,16)" stroke-width="2" x1="24" x2="48" y1="5" y2="54" /><line stroke="rgb(10,10,16)" stroke-width="2" x1="36" x2="78" y1="53" y2="107" /><line stroke="rgb(10,10,16)" stroke-width="2" x1="132" x2="133" y1="63" y2="6" /><line stroke="rgb(10,10,16)" stroke-width="2" x1="109" x2="127" y1="24" y2="84" /><line stroke="rgb(10,10,16)" stroke-width="2" x1="133" x2="133" y1="49" y2="77" /><line stroke="rgb(10,10,16)" stroke-width="2" x1="134" x2="134" y1="77" y2="7" /><line stroke="rgb(10,10,16)" stroke-width="2" x1="38" x2="38" y1="36" y2="32" /><line stroke="rgb(10,10,16)" stroke-width="2" x1="29" x2="35" y1="98" y2="54" /><line stroke="rgb(10,10,16)" stroke-width="2" x1="68" x2="83" y1="97" y2="129" /><line stroke="rgb(10,10,16)" stroke-width="2" x1="74" x2="111" y1="100" y2="147" /><line stroke="rgb(10,10,16)" stroke-width="2" x1="74" x2="93" y1="115" y2="154" /><line stroke="rgb(10,10,16)" stroke-width="2" x1="136" x2="154" y1="64" y2="16" /><line stroke="rgb(10,10,16)" stroke-width="2" x1="61" x2="83" y1="82" y2="128" /><line stroke="rgb(10,10,16)" stroke-width="2" x1="132" x2="132" y1="43" y2="7" /><line stroke="rgb(10,10,16)" stroke-width="2" x1="95" x2="122" y1="98" y2="94" /></svg>