<?xml version="1.0" encoding="utf-8" ?>
<svg baseProfile="full" height="160" version="1.1" width="160" xmlns="http://www.w3.org/2000/svg" xmlns:ev="http://www.w3.org/2001/xml-events" xmlns:xlink="http://www.w3.org/1999/xlink"><defs /><line stroke="rgb(10,10,16)" stroke-width="2" x1="21" x2="104" y1="144" y2="38" /><line stroke="rgb(10,10,16)" stroke-width="2" x1="20" x2="78" y1="66" y2="95" /><line stroke="rgb(10,10,16)" stroke-width="2" x1="96" x2="154" y1="17" y2="122" /><line stroke="rgb(10,10,16)" stroke-width="2" x1="119" x2="151" y1="111" y2="156" /><line stroke="rgb(10,10,16)" stroke-width="2" x1="21" x2="104" y1="45" y2="39" /><line stroke="rgb(10,10,16)" stroke-width="2" x1="99" x2="157" y1="85" y2="145" /><line stroke="rgb(10,10,16)" stroke-width="2" x1="109" x2="131" y1="40" y2="39" /><line stroke="rgb(10,10,16)" stroke-width="2" x1="76" x2="122" y1="73" y2="14" /><line stroke="rgb(10,10,16)" stroke-width="2" x1="70" x2="112" y1="91" y2="67" /><line stroke="rgb(10,10,16)" stroke-width="2" x1="105" x2="136" y1="92" y2="133" /><line stroke="rgb(10,10,16)" stroke-width="2" x1="85" x2="97" y1="67" y2="82" /><line stroke="rgb(10,10,16)" stroke-width="2" x1="49" x2="94" y1="44" y2="42" /><line stroke="rgb(10,10,16)" stroke-width="2" x1="74" x2="125" y1="95" y2="109" /><line stroke="rgb(10,10,16)" stroke-width="2" x1="72" x2="96" y1="47" y2="78" /><line stroke="rgb(10,10,16)" stroke-width="2" x1="122" x2="155" y1="59" y2="121" /><line stroke="rgb(10,10,16)" stroke-width="2" x1="140" x2="156" y1="129" y2="145" /><line stroke="rgb(10,10,16)" stroke-width="2" x1="91" x2="112" y1="101" y2="107" /><line stroke="rgb(10,10,16)" stroke-width="2" x1="115" x2="151" y1="101" y2="138" /></svg>