<?xml version="1.0" encoding="utf-8" ?>
<svg baseProfile="full" height="160" version="1.1" width="160" xmlns="http://www.w3.org/2000/svg" xmlns:ev="http://www.w3.org/2001/xml-events" xmlns:xlink="http://www.w3.org/1999/xlink"><defs /><line stroke="rgb(10,10,16)" stroke-width="2" x1="49" x2="142" y1="5" y2="155" /><line stroke="rgb(10,10,16)" stroke-width="2" x1="24" x2="62" y1="25" y2="77" /><line stroke="rgb(10,10,16)" stroke-width="2" x1="1" x2="119" y1="89" y2="71" /><line stroke="rgb(10,10,16)" stroke-width="2" x1="22" x2="49" y1="98" y2="21" /><line stroke="rgb(10,10,16)" stroke-width="2" x1="73" x2="87" y1="41" y2="49" /><line stroke="rgb(10,10,16)" stroke-width="2" x1="9" x2="84" y1="82" y2="38" /><line stroke="rgb(10,10,16)" stroke-width="2" x1="15" x2="54" y1="7" y2="30" /><line stroke="rgb(10,10,16)" stroke-width="2" x1="33" x2="38" y1="63" y2="49" /><line stroke="rgb(10,10,16)" stroke-width="2" x1="30" x2="147" y1="86" y2="68" /><line stroke="rgb(10,10,16)" stroke-width="2" x1="39" x2="91" y1="47" y2="118" /><line stroke="rgb(10,10,16)" stroke-width="2" x1="128" x2="129" y1="111" y2="72" /><line stroke="rgb(10,10,16)" stroke-width="2" x1="99" x2="142" y1="88" y2="157" /><line stroke="rgb(10,10,16)" stroke-width="2" x1="39" x2="46" y1="43" y2="22" /><line stroke="rgb(10,10,16)" stroke-width="2" x1="13" x2="13" y1="131" y2="96" /><line stroke="rgb(10,10,16)" stroke-width="2" x1="12" x2="12" y1="95" y2="130" /><line stroke="rgb(10,10,16)" stroke-width="2" x1="65" x2="90" y1="84" y2="119" /><line stroke="rgb(10,10,16)" stroke-width="2" x1="128" x2="128" y1="64" y2="91" /></svg>