<?xml version="1.0" encoding="utf-8" ?>
<svg baseProfile="full" height="160" version="1.1" width="160" xmlns="http://www.w3.org/2000/svg" xmlns:ev="http://www.w3.org/2001/xml-events" xmlns:xlink="http://www.w3.org/1999/xlink"><defs /><line stroke="rgb(10,10,16)" stroke-width="2" x1="133" x2="148" y1="23" y2="112" /><line stroke="rgb(10,10,16)" stroke-width="2" x1="0" x2="29" y1="12" y2="96" /><line stroke="rgb(10,10,16)" stroke-width="2" x1="42" x2="145" y1="138" y2="90" /><line stroke="rgb(10,10,16)" stroke-width="2" x1="31" x2="126" y1="100" y2="135" /><line stroke="rgb(10,10,16)" stroke-width="2" x1="138" x2="152" y1="60" y2="143" /><line stroke="rgb(10,10,16)" stroke-width="2" x1="69" x2="118" y1="8" y2="40" /><line stroke="rgb(10,10,16)" stroke-width="2" x1="82" x2="133" y1="92" y2="104" /><line stroke="rgb(10,10,16)" stroke-width="2" x1="86" x2="139" y1="122" y2="142" /><line stroke="rgb(10,10,16)" stroke-width="2" x1="127" x2="144" y1="100" y2="92" /><line stroke="rgb(10,10,16)" stroke-width="2" x1="127" x2="148" y1="103" y2="107" /><line stroke="rgb(10,10,16)" stroke-width="2" x1="49" x2="62" y1="134" y2="94" /><line stroke="rgb(10,10,16)" stroke-width="2" x1="107" x2="116" y1="109" y2="103" /><line stroke="rgb(10,10,16)" stroke-width="2" x1="124" x2="155" y1="95" y2="72" /><line stroke="rgb(10,10,16)" stroke-width="2" x1="55" x2="88" y1="132" y2="116" /><line stroke="rgb(10,10,16)" stroke-width="2" x1="8" x2="21" y1="35" y2="71" /></svg>