<?xml version="1.0" encoding="utf-8" ?>
<svg baseProfile="full" height="160" version="1.1" width="160" xmlns="http://www.w3.org/2000/svg" xmlns:ev="http://www.w3.org/2001/xml-events" xmlns:xlink="http://www.w3.org/1999/xlink"><defs /><line stroke="rgb(10,10,16)" stroke-width="2" x1="20" x2="147" y1="85" y2="70" /><line stroke="rgb(10,10,16)" stroke-width="2" x1="138" x2="141" y1="141" y2="143" /><line stroke="rgb(10,10,16)" stroke-width="2" x1="114" x2="131" y1="130" y2="139" /><line stroke="rgb(10,10,16)" stroke-width="2" x1="45" x2="115" y1="47" y2="130" /><line stroke="rgb(10,10,16)" stroke-width="2" x1="32" x2="90" y1="85" y2="118" /><line stroke="rgb(10,10,16)" stroke-width="2" x1="109" x2="127" y1="83" y2="119" /><line stroke="rgb(10,10,16)" stroke-width="2" x1="28" x2="77" y1="63" y2="42" /><line stroke="rgb(10,10,16)" stroke-width="2" x1="41" x2="53" y1="84" y2="83" /><line stroke="rgb(10,10,16)" stroke-width="2" x1="83" x2="114" y1="113" y2="128" /><line stroke="rgb(10,10,16)" stroke-width="2" x1="118" x2="122" y1="75" y2="75" /><line stroke="rgb(10,10,16)" stroke-width="2" x1="25" x2="27" y1="86" y2="86" /><line stroke="rgb(10,10,16)" stroke-width="2" x1="75" x2="117" y1="80" y2="75" /><line stroke="rgb(10,10,16)" stroke-width="2" x1="69" x2="101" y1="105" y2="121" /><line stroke="rgb(10,10,16)" stroke-width="2" x1="103" x2="111" y1="118" y2="128" /><line stroke="rgb(10,10,16)" stroke-width="2" x1="74" x2="107" y1="83" y2="122" /><line stroke="rgb(10,10,16)" stroke-width="2" x1="136" x2="143" y1="132" y2="147" /></svg>