<?xml version="1.0" encoding="utf-8" ?>
<svg baseProfile="full" height="160" version="1.1" width="160" xmlns="http://www.w3.org/2000/svg" xmlns:ev="http://www.w3.org/2001/xml-events" xmlns:xlink="http://www.w3.org/1999/xlink"><defs /><line stroke="rgb(10,10,16)" stroke-width="2" x1="35" x2="64" y1="63" y2="86" /><line stroke="rgb(10,10,16)" stroke-width="2" x1="3" x2="110" y1="139" y2="113" /><line stroke="rgb(10,10,16)" stroke-width="2" x1="69" x2="114" y1="91" y2="124" /><line stroke="rgb(10,10,16)" stroke-width="2" x1="75" x2="156" y1="13" y2="9" /><line stroke="rgb(10,10,16)" stroke-width="2" x1="24" x2="101" y1="87" y2="46" /><line stroke="rgb(10,10,16)" stroke-width="2" x1="50" x2="51" y1="64" y2="61" /><line stroke="rgb(10,10,16)" stroke-width="2" x1="52" x2="132" y1="13" y2="9" /><line stroke="rgb(10,10,16)" stroke-width="2" x1="19" x2="39" y1="150" y2="97" /><line stroke="rgb(10,10,16)" stroke-width="2" x1="106" x2="149" y1="83" y2="9" /><line stroke="rgb(10,10,16)" stroke-width="2" x1="28" x2="89" y1="15" y2="54" /><line stroke="rgb(10,10,16)" stroke-width="2" x1="49" x2="75" y1="74" y2="59" /><line stroke="rgb(10,10,16)" stroke-width="2" x1="27" x2="100" y1="132" y2="114" /><line stroke="rgb(10,10,16)" stroke-width="2" x1="120" x2="151" y1="62" y2="7" /><line stroke="rgb(10,10,16)" stroke-width="2" x1="133" x2="137" y1="35" y2="33" /><line stroke="rgb(10,10,16)" stroke-width="2" x1="7" x2="45" y1="97" y2="77" /><line stroke="rgb(10,10,16)" stroke-width="2" x1="70" x2="76" y1="91" y2="100" /><line stroke="rgb(10,10,16)" stroke-width="2" x1="39" x2="66" y1="44" y2="86" /><line stroke="rgb(10,10,16)" stroke-width="2" x1="108" x2="152" y1="120" y2="152" /></svg>