<?xml version="1.0" encoding="utf-8" ?>
<svg baseProfile="full" height="160" version="1.1" width="160" xmlns="http://www.w3.org/2000/svg" xmlns:ev="http://www.w3.org/2001/xml-events" xmlns:xlink="http://www.w3.org/1999/xlink"><defs /><line stroke="rgb(10,10,16)" stroke-width="2" x1="57" x2="93" y1="34" y2="87" /><line stroke="rgb(10,10,16)" stroke-width="2" x1="40" x2="54" y1="12" y2="99" /><line stroke="rgb(10,10,16)" stroke-width="2" x1="52" x2="125" y1="89" y2="2" /><line stroke="rgb(10,10,16)" stroke-width="2" x1="97" x2="130" y1="103" y2="134" /><line stroke="rgb(10,10,16)" stroke-width="2" x1="26" x2="26" y1="78" y2="95" /><line stroke="rgb(10,10,16)" stroke-width="2" x1="25" x2="28" y1="4" y2="95" /><line stroke="rgb(10,10,16)" stroke-width="2" x1="76" x2="127" y1="50" y2="50" /><line stroke="rgb(10,10,16)" stroke-width="2" x1="132" x2="153" y1="134" y2="153" /><line stroke="rgb(10,10,16)" stroke-width="2" x1="24" x2="65" y1="104" y2="68" /><line stroke="rgb(10,10,16)" stroke-width="2" x1="28" x2="28" y1="101" y2="103" /><line stroke="rgb(10,10,16)" stroke-width="2" x1="24" x2="27" y1="21" y2="96" /><line stroke="rgb(10,10,16)" stroke-width="2" x1="120" x2="133" y1="125" y2="137" /><line stroke="rgb(10,10,16)" stroke-width="2" x1="87" x2="127" y1="49" y2="49" /><line stroke="rgb(10,10,16)" stroke-width="2" x1="75" x2="77" y1="62" y2="64" /><line stroke="rgb(10,10,16)" stroke-width="2" x1="88" x2="107" y1="97" y2="114" /></svg>