<?xml version="1.0" encoding="utf-8" ?>
<svg baseProfile="full" height="160" version="1.1" width="160" xmlns="http://www.w3.org/2000/svg" xmlns:ev="http://www.w3.org/2001/xml-events" xmlns:xlink="http://www.w3.org/1999/xlink"><defs /><line stroke="rgb(10,10,16)" stroke-width="2" x1="16" x2="117" y1="6" y2="38" /><line stroke="rgb(10,10,16)" stroke-width="2" x1="21" x2="116" y1="123" y2="9" /><line stroke="rgb(10,10,16)" stroke-width="2" x1="25" x2="38" y1="109" y2="1" /><line stroke="rgb(10,10,16)" stroke-width="2" x1="19" x2="109" y1="57" y2="87" /><line stroke="rgb(10,10,16)" stroke-width="2" x1="89" x2="93" y1="43" y2="39" /><line stroke="rgb(10,10,16)" stroke-width="2" x1="21" x2="37" y1="126" y2="0" /><line stroke="rgb(10,10,16)" stroke-width="2" x1="10" x2="93" y1="137" y2="38" /><line stroke="rgb(10,10,16)" stroke-width="2" x1="58" x2="74" y1="70" y2="1" /><line stroke="rgb(10,10,16)" stroke-width="2" x1="89" x2="158" y1="42" y2="23" /><line stroke="rgb(10,10,16)" stroke-width="2" x1="91" x2="116" y1="38" y2="8" /><line stroke="rgb(10,10,16)" stroke-width="2" x1="109" x2="110" y1="100" y2="127" /><line stroke="rgb(10,10,16)" stroke-width="2" x1="118" x2="159" y1="33" y2="22" /><line stroke="rgb(10,10,16)" stroke-width="2" x1="62" x2="67" y1="47" y2="25" /><line stroke="rgb(10,10,16)" stroke-width="2" x1="32" x2="81" y1="62" y2="77" /><line stroke="rgb(10,10,16)" stroke-width="2" x1="116" x2="150" y1="36" y2="47" /><line stroke="rgb(10,10,16)" stroke-width="2" x1="109" x2="110" y1="120" y2="140" /><line stroke="rgb(10,10,16)" stroke-width="2" x1="68" x2="73" y1="20" y2="0" /></svg>