<?xml version="1.0" encoding="utf-8" ?>
<svg baseProfile="full" height="160" version="1.1" width="160" xmlns="http://www.w3.org/2000/svg" xmlns:ev="http://www.w3.org/2001/xml-events" xmlns:xlink="http://www.w3.org/1999/xlink"><defs /><line stroke="rgb(10,10,16)" stroke-width="2" x1="11" x2="27" y1="133" y2="3" /><line stroke="rgb(10,10,16)" stroke-width="2" x1="16" x2="96" y1="95" y2="115" /><line stroke="rgb(10,10,16)" stroke-width="2" x1="38" x2="47" y1="45" y2="128" /><line stroke="rgb(10,10,16)" stroke-width="2" x1="48" x2="132" y1="133" y2="125" /><line stroke="rgb(10,10,16)" stroke-width="2" x1="46" x2="51" y1="107" y2="154" /><line stroke="rgb(10,10,16)" stroke-width="2" x1="18" x2="29" y1="91" y2="3" /><line stroke="rgb(10,10,16)" stroke-width="2" x1="132" x2="155" y1="124" y2="129" /><line stroke="rgb(10,10,16)" stroke-width="2" x1="62" x2="80" y1="103" y2="103" /><line stroke="rgb(10,10,16)" stroke-width="2" x1="54" x2="73" y1="107" y2="111" /><line stroke="rgb(10,10,16)" stroke-width="2" x1="34" x2="84" y1="101" y2="113" /><line stroke="rgb(10,10,16)" stroke-width="2" x1="52" x2="82" y1="103" y2="102" /><line stroke="rgb(10,10,16)" stroke-width="2" x1="47" x2="60" y1="103" y2="101" /><line stroke="rgb(10,10,16)" stroke-width="2" x1="14" x2="16" y1="103" y2="103" /><line stroke="rgb(10,10,16)" stroke-width="2" x1="47" x2="50" y1="123" y2="155" /><line stroke="rgb(10,10,16)" stroke-width="2" x1="78" x2="115" y1="132" y2="129" /></svg>