<?xml version="1.0" encoding="utf-8" ?>
<svg baseProfile="full" height="160" version="1.1" width="160" xmlns="http://www.w3.org/2000/svg" xmlns:ev="http://www.w3.org/2001/xml-events" xmlns:xlink="http://www.w3.org/1999/xlink"><defs /><line stroke="rgb(10,10,16)" stroke-width="2" x1="8" x2="99" y1="6" y2="80" /><line stroke="rgb(10,10,16)" stroke-width="2" x1="98" x2="114" y1="82" y2="91" /><line stroke="rgb(10,10,16)" stroke-width="2" x1="97" x2="105" y1="81" y2="41" /><line stroke="rgb(10,10,16)" stroke-width="2" x1="5" x2="80" y1="35" y2="74" /><line stroke="rgb(10,10,16)" stroke-width="2" x1="83" x2="101" y1="151" y2="64" /><line stroke="rgb(10,10,16)" stroke-width="2" x1="38" x2="92" y1="51" y2="79" /><line stroke="rgb(10,10,16)" stroke-width="2" x1="122" x2="122" y1="99" y2="97" /><line stroke="rgb(10,10,16)" stroke-width="2" x1="123" x2="123" y1="34" y2="5" /><line stroke="rgb(10,10,16)" stroke-width="2" x1="30" x2="57" y1="22" y2="45" /><line stroke="rgb(10,10,16)" stroke-width="2" x1="98" x2="143" y1="87" y2="91" /><line stroke="rgb(10,10,16)" stroke-width="2" x1="42" x2="63" y1="34" y2="52" /><line stroke="rgb(10,10,16)" stroke-width="2" x1="14" x2="44" y1="72" y2="55" /><line stroke="rgb(10,10,16)" stroke-width="2" x1="106" x2="142" y1="152" y2="150" /><line stroke="rgb(10,10,16)" stroke-width="2" x1="116" x2="144" y1="88" y2="90" /><line stroke="rgb(10,10,16)" stroke-width="2" x1="90" x2="108" y1="74" y2="89" /><line stroke="rgb(10,10,16)" stroke-width="2" x1="115" x2="123" y1="92" y2="98" /></svg>