<?xml version="1.0" encoding="utf-8" ?>
<svg baseProfile="full" height="160" version="1.1" width="160" xmlns="http://www.w3.org/2000/svg" xmlns:ev="http://www.w3.org/2001/xml-events" xmlns:xlink="http://www.w3.org/1999/xlink"><defs /><line stroke="rgb(10,10,16)" stroke-width="2" x1="72" x2="144" y1="75" y2="3" /><line stroke="rgb(10,10,16)" stroke-width="2" x1="95" x2="115" y1="11" y2="73" /><line stroke="rgb(10,10,16)" stroke-width="2" x1="21" x2="70" y1="21" y2="72" /><line stroke="rgb(10,10,16)" stroke-width="2" x1="110" x2="123" y1="72" y2="95" /><line stroke="rgb(10,10,16)" stroke-width="2" x1="29" x2="105" y1="30" y2="43" /><line stroke="rgb(10,10,16)" stroke-width="2" x1="117" x2="155" y1="87" y2="150" /><line stroke="rgb(10,10,16)" stroke-width="2" x1="25" x2="77" y1="121" y2="69" /><line stroke="rgb(10,10,16)" stroke-width="2" x1="99" x2="107" y1="47" y2="39" /><line stroke="rgb(10,10,16)" stroke-width="2" x1="80" x2="107" y1="86" y2="115" /><line stroke="rgb(10,10,16)" stroke-width="2" x1="106" x2="114" y1="50" y2="75" /><line stroke="rgb(10,10,16)" stroke-width="2" x1="34" x2="73" y1="4" y2="75" /><line stroke="rgb(10,10,16)" stroke-width="2" x1="68" x2="92" y1="69" y2="8" /><line stroke="rgb(10,10,16)" stroke-width="2" x1="117" x2="120" y1="81" y2="89" /><line stroke="rgb(10,10,16)" stroke-width="2" x1="65" x2="94" y1="80" y2="8" /><line stroke="rgb(10,10,16)" stroke-width="2" x1="123" x2="135" y1="98" y2="143" /><line stroke="rgb(10,10,16)" stroke-width="2" x1="60" x2="70" y1="48" y2="66" /><line stroke="rgb(10,10,16)" stroke-width="2" x1="148" x2="151" y1="39" y2="11" /><line stroke="rgb(10,10,16)" stroke-width="2" x1="90" x2="104" y1="59" y2="45" /></svg>